<svg width="364" height="138" viewBox="0 0 364 138" fill="none" xmlns="http://www.w3.org/2000/svg">
<path d="M136.16 50.77C133.74 46.99 128.88 44.92 124.17 44.92C115.42 44.92 107.08 51.47 107.08 62.87C107.08 74.27 115.41 80.82 124.17 80.82C128.88 80.82 133.59 78.76 136.16 74.79V80.09H143.2V45.75H136.16V50.77ZM125.27 74.64C119.53 74.64 114.24 70.37 114.24 62.87C114.24 55.37 119.54 51.1 125.27 51.1C131 51.1 136.16 55.59 136.16 62.87C136.16 70.15 130.86 74.64 125.27 74.64ZM172.9 63.34C172.9 70.43 170.59 74.66 165.07 74.66C159.55 74.66 156.95 71.25 156.95 64.64V45.75H149.52V65.12C149.52 76.92 156 80.8 163.43 80.8C168.48 80.8 171.95 78.05 173.17 75.7V81.01C173.17 86.86 171.53 91.3 165.18 91.3C160.46 91.3 158.04 89.76 157.09 85.52H149.67C150.63 92.96 156 97.12 164.51 97.12C175.91 97.12 180.28 90.03 180.28 80.53V45.75H172.9V63.35V63.34ZM205.03 80.08L217.8 45.74H210.39L200.86 73.1L191.33 45.74H183.48L196.32 80.08H205.02H205.03ZM265.29 62.31C265.29 55.76 268.52 51.13 274.68 51.13C280.11 51.13 282.83 54.44 282.83 61.07V80.08H290.08V60.31C290.08 49.25 284.26 44.91 276.76 44.91C271.85 44.91 266.9 47.59 264.93 51.52V45.74H257.98V80.08H265.3V62.31H265.29ZM235.66 80.81C243.14 80.81 249.32 76.51 251.33 69.49H244.1C242.88 73.27 239.79 74.74 235.65 74.74C229.79 74.74 225.97 70.33 225.57 64.77H252.22C252.34 63.57 252.36 62.71 252.36 61.34C252.36 52.12 245.56 44.91 235.72 44.91C225.01 44.91 218.39 52.55 218.39 63C218.39 72.62 224.7 80.81 235.65 80.81H235.66ZM235.66 50.64C241.47 50.64 245.03 54.5 245.14 59.61H225.72C226.19 54.23 229.9 50.64 235.66 50.64ZM323.51 69.9C323.51 57.81 303.03 61.19 303.03 54.3C303.03 51.91 304.97 50.59 308.83 50.59C312.91 50.59 315.31 52.52 315.39 55.47H322.25C321.96 48.56 316.47 44.91 308.97 44.91C301.47 44.91 296.03 48.89 296.03 55.04C296.03 66.94 316.21 63.34 316.21 70.57C316.21 73.27 314.08 75.13 309.86 75.13C305.64 75.13 302.3 72.85 301.78 69.21H294.58C295.1 75.76 300.8 80.81 309.93 80.81C319.62 80.81 323.51 75.19 323.51 69.9ZM76.21 80.07H93.79V40.02H82.58C82.58 53.97 80.34 67.49 76.2 80.07H76.21ZM70.4 40.02L40.04 80.32C62.1 80.32 80.24 62.09 80.24 40.02H70.39H70.4ZM209.05 93.7H210.1V88.03H209.05V93.7ZM205.24 92.87C203.85 92.87 202.98 92.02 202.98 90.85C202.98 89.68 203.84 88.84 205.22 88.84C206.09 88.84 206.75 89.13 207.27 89.53L207.83 88.7C207.11 88.17 206.31 87.85 205.19 87.85C203.31 87.85 201.86 89.08 201.86 90.84C201.86 92.6 203.29 93.84 205.19 93.84C206.31 93.84 207.16 93.54 207.87 93.01L207.31 92.18C206.79 92.58 206.1 92.86 205.23 92.86L205.24 92.87ZM212.7 91.28H215.9V90.34H212.7V88.97H216.81V88.03H211.65V93.7H217V92.76H212.71V91.28H212.7ZM197.55 87.85C195.74 87.85 194.25 89.08 194.25 90.85C194.25 92.62 195.75 93.85 197.55 93.85C199.35 93.85 200.84 92.65 200.84 90.85C200.84 89.05 199.37 87.85 197.55 87.85ZM197.55 92.89C196.2 92.89 195.33 92.02 195.33 90.85C195.33 89.68 196.23 88.82 197.55 88.82C198.87 88.82 199.75 89.71 199.75 90.85C199.75 91.99 198.9 92.89 197.55 92.89ZM188.79 89.46C188.79 89.07 189.3 88.85 190.31 88.85C191.01 88.85 191.78 89.05 192.51 89.37L192.93 88.52C192.13 88.12 191.29 87.9 190.29 87.9C188.63 87.9 187.7 88.57 187.7 89.53C187.7 91.77 192.22 90.85 192.22 92.08C192.22 92.55 191.63 92.87 190.53 92.87C189.65 92.87 188.84 92.66 187.97 92.17L187.56 93.06C188.55 93.59 189.41 93.82 190.52 93.82C192.38 93.82 193.31 93.06 193.31 92.07C193.31 89.68 188.79 90.58 188.79 89.46ZM238.06 92.51C237.61 92.72 237.02 92.85 236.44 92.85C235.05 92.85 234.18 92.01 234.18 90.84C234.18 89.67 235.04 88.82 236.43 88.85C237.3 88.85 237.96 89.12 238.48 89.52L239.04 88.69C238.32 88.16 237.5 87.85 236.4 87.85C234.52 87.85 233.07 89.08 233.07 90.84C233.07 92.6 234.5 93.84 236.4 93.84C237.38 93.84 238.37 93.54 239.09 93.06V90.86H238.07V92.51H238.06ZM293.94 92.51C293.49 92.72 292.89 92.85 292.32 92.85C290.93 92.85 290.06 92.01 290.06 90.84C290.06 89.67 290.92 88.82 292.31 88.85C293.18 88.85 293.84 89.12 294.36 89.52L294.92 88.69C294.2 88.16 293.38 87.85 292.28 87.85C290.41 87.85 288.95 89.08 288.95 90.84C288.95 92.6 290.38 93.84 292.28 93.84C293.25 93.84 294.25 93.54 294.96 93.06V90.86H293.94V92.51ZM281.03 91.27H284.23V90.33H281.03V88.96H285.14V88.02H279.98V93.69H285.32V92.75H281.03V91.27ZM302.04 89.83C302.04 88.76 301.29 88.02 300.08 88.02H296.44V93.69H297.49V91.6H299.18L300.78 93.69H302.09L300.41 91.57C301.3 91.44 302.04 90.84 302.04 89.82V89.83ZM297.49 90.66V88.96H300.08C300.67 88.96 300.99 89.29 300.99 89.83C300.99 90.32 300.62 90.66 299.96 90.66H297.48H297.49ZM321.59 88.02H318.08V93.69H319.13V91.78H321.59C322.83 91.78 323.61 91.11 323.61 89.94C323.61 88.77 322.83 88.01 321.59 88.01V88.02ZM321.65 90.85H319.13V88.96H321.59C322.19 88.96 322.53 89.41 322.53 89.96C322.53 90.47 322.19 90.84 321.65 90.84V90.85ZM275.45 88.02H274.4V93.69H279.24V92.75H275.45V88.01V88.02ZM217.52 88.95H219.83V93.69H220.88V88.95H223.19V88.02H217.52V88.95ZM306.28 87.84C304.47 87.84 302.98 89.07 302.98 90.84C302.98 92.61 304.48 93.84 306.28 93.84C308.08 93.84 309.57 92.64 309.57 90.84C309.57 89.04 308.09 87.84 306.28 87.84ZM306.28 92.88C304.93 92.88 304.07 92.01 304.07 90.84C304.07 89.67 304.97 88.81 306.28 88.81C307.59 88.81 308.48 89.7 308.48 90.84C308.48 91.98 307.63 92.88 306.28 92.88ZM315.5 91.26C315.5 92.21 314.92 92.87 313.69 92.87C312.46 92.87 311.88 92.2 311.88 91.26V88.01H310.83V91.38C310.83 92.8 311.9 93.85 313.69 93.85C315.48 93.85 316.55 92.82 316.55 91.38V88.01H315.5V91.26ZM251.81 89.49C251.81 90.33 251.81 91.2 251.88 92.27H251.86L248.16 88.01H247.08V93.68H248.11V92.2C248.11 91.72 248.11 90.25 248.07 89.42H248.08L251.76 93.69H252.82V88.02H251.79V89.5L251.81 89.49ZM241.61 91.26H244.81V90.32H241.61V88.95H245.72V88.01H240.56V93.68H245.9V92.74H241.61V91.26ZM269.74 88.01L266.98 93.68H268.11L268.76 92.3H271.82L272.47 93.68H273.6L270.83 88.01H269.73H269.74ZM269.2 91.38L270.3 89.08L271.39 91.38H269.2ZM225.15 91.26H228.35V90.32H225.15V88.95H229.26V88.01H224.1V93.68H229.45V92.74H225.16V91.26H225.15ZM266.51 89.82C266.51 88.75 265.76 88.01 264.55 88.01H260.9V93.68H261.95V91.59H263.64L265.24 93.68H266.55L264.87 91.56C265.76 91.43 266.5 90.83 266.5 89.81L266.51 89.82ZM261.96 90.65V88.95H264.56C265.15 88.95 265.47 89.28 265.47 89.82C265.47 90.31 265.1 90.65 264.44 90.65H261.96ZM255.45 91.26H258.65V90.32H255.45V88.95H259.56V88.01H254.4V93.68H259.74V92.74H255.45V91.26Z" fill="white"/>
</svg>
